<?xml version="1.0" encoding="UTF-8" standalone="no"?>
<svg
   xmlns:dc="http://purl.org/dc/elements/1.1/"
   xmlns:cc="http://creativecommons.org/ns#"
   xmlns:rdf="http://www.w3.org/1999/02/22-rdf-syntax-ns#"
   xmlns:svg="http://www.w3.org/2000/svg"
   xmlns="http://www.w3.org/2000/svg"
   xmlns:sodipodi="http://sodipodi.sourceforge.net/DTD/sodipodi-0.dtd"
   xmlns:inkscape="http://www.inkscape.org/namespaces/inkscape"
   version="1.1"
   id="Layer_1"
   x="0px"
   y="0px"
   viewBox="0 0 128 128"
   xml:space="preserve"
   sodipodi:docname="LiteNote.svg"
   inkscape:version="0.92.3 (2405546, 2018-03-11)"
   inkscape:export-filename="C:\Users\RonaldJr\documents\litenote.png"
   inkscape:export-xdpi="768"
   inkscape:export-ydpi="768"><defs
     id="defs29" /><sodipodi:namedview
     pagecolor="#ffffff"
     bordercolor="#666666"
     borderopacity="1"
     objecttolerance="10"
     gridtolerance="10"
     guidetolerance="10"
     inkscape:pageopacity="0"
     inkscape:pageshadow="2"
     inkscape:window-width="1920"
     inkscape:window-height="1013"
     id="namedview27"
     showgrid="false"
     inkscape:zoom="6.40625"
     inkscape:cx="64"
     inkscape:cy="64"
     inkscape:window-x="-9"
     inkscape:window-y="-9"
     inkscape:window-maximized="1"
     inkscape:current-layer="Layer_1"
     inkscape:pagecheckerboard="true" /><style
     type="text/css"
     id="style10">.st0{fill:#818182;} .st1{fill:#939393;} .st2{fill:#BCBCBC;}</style><path
     class="st0"
     d="M64 128C28.7 128 0 99.3 0 64S28.7 0 64 0s64 28.7 64 64-28.7 64-64 64z"
     fill="#818182"
     id="path12" /><path
     class="st1"
     d="M64 120.1c-32 0-58.1-26-58.1-58.1S32 4 64 4s58.1 26 58.1 58.1-26.1 58-58.1 58z"
     id="path14"
     fill="#939393" /><path
     class="st2"
     d="M64 8c29.8 0 54.1 24.3 54.1 54.1S93.8 116.2 64 116.2 9.9 91.9 9.9 62.1 34.2 8 64 8m0-8C29.7 0 1.9 27.8 1.9 62.1s27.8 62.1 62.1 62.1 62.1-27.8 62.1-62.1S98.3 0 64 0z"
     fill="#BCBCBC"
     id="path16" /><path
     class="st0"
     d="M13.6 65.6c0-29.8 24.2-54 54-54 13.9 0 26.6 5.3 36.2 13.9-9.9-10.9-24.2-17.8-40-17.8-29.8 0-54 24.2-54 54 0 15.9 6.9 30.1 17.8 40-8.8-9.5-14-22.2-14-36.1z"
     fill="#818182"
     id="path18" /><path
     style="fill:#666666;fill-opacity:1;stroke-width:0.69581264"
     inkscape:connector-curvature="0"
     id="path867"
     d="M 48.135346,61.74128 51.319666,50.178373 58.82051,47.51001 60.66034,40.668053 60.58958,40.531214 53.230262,43.131157 58.537463,23.7 H 43.394246 l -6.934742,25.38366 -5.873303,2.052587 -1.910592,6.978796 5.80254,-2.052587 -4.104236,14.983885 H 70.70864 l 2.547457,-9.305061 z"
     class="st2" /><g
     transform="matrix(1.08,0,-0.28938513,1.08,24.048161,-3.0221095)"
     id="g875"
     style="fill:#666666"><rect
       style="opacity:1;fill:#666666;fill-opacity:1;stroke:none;stroke-width:0.37521723;stroke-linejoin:round;stroke-miterlimit:4;stroke-dasharray:none;stroke-opacity:1"
       id="rect869"
       width="12"
       height="42.770733"
       x="52.760975"
       y="53.385265" /><rect
       style="opacity:1;fill:#666666;fill-opacity:1;stroke:none;stroke-width:0.43379638;stroke-linejoin:round;stroke-miterlimit:4;stroke-dasharray:none;stroke-opacity:1"
       id="rect871"
       width="12"
       height="42.926826"
       x="75.754036"
       y="53.498981" /><rect
       style="opacity:1;fill:#666666;fill-opacity:1;stroke:none;stroke-width:0.37521723;stroke-linejoin:round;stroke-miterlimit:4;stroke-dasharray:none;stroke-opacity:1"
       id="rect873"
       width="12"
       height="42.770733"
       x="17.392014"
       y="78.61348"
       transform="rotate(-30)" /></g><g
     id="g865"
     transform="matrix(1.08,0,-0.28938513,1.08,21.706698,-6.1440607)"><rect
       y="53.385265"
       x="52.760975"
       height="42.770733"
       width="12"
       id="rect33"
       style="opacity:1;fill:#bcbcbc;fill-opacity:1;stroke:none;stroke-width:0.37521723;stroke-linejoin:round;stroke-miterlimit:4;stroke-dasharray:none;stroke-opacity:1" /><rect
       y="53.498981"
       x="75.754036"
       height="42.926826"
       width="12"
       id="rect845"
       style="opacity:1;fill:#bcbcbc;fill-opacity:1;stroke:none;stroke-width:0.43379638;stroke-linejoin:round;stroke-miterlimit:4;stroke-dasharray:none;stroke-opacity:1" /><rect
       transform="rotate(-30)"
       y="78.61348"
       x="17.392014"
       height="42.770733"
       width="12"
       id="rect33-2"
       style="opacity:1;fill:#bcbcbc;fill-opacity:1;stroke:none;stroke-width:0.37521723;stroke-linejoin:round;stroke-miterlimit:4;stroke-dasharray:none;stroke-opacity:1" /></g><path
     class="st2"
     d="m 45.793883,59.399817 3.18432,-11.562907 7.500844,-2.668363 1.83983,-6.841957 -0.07076,-0.136839 -7.359318,2.599943 L 56.196,21.358537 H 41.052783 l -6.934742,25.38366 -5.873303,2.052587 -1.910592,6.978796 5.80254,-2.052587 -4.104236,14.983885 h 40.334727 l 2.547457,-9.305061 z"
     id="path22"
     inkscape:connector-curvature="0"
     style="fill:#bcbcbc;stroke-width:0.69581264;fill-opacity:1" /><metadata
     id="metadata24"><rdf:RDF><rdf:Description
         about="https://iconscout.com/legal#licenses"
         dc:title="litecoin"
         dc:description="litecoin"
         dc:publisher="Iconscout"
         dc:date="2018-01-14"
         dc:format="image/svg+xml"
         dc:language="en"><dc:creator><rdf:Bag><rdf:li>Icon Mafia</rdf:li></rdf:Bag></dc:creator></rdf:Description><cc:Work
         rdf:about=""><dc:format>image/svg+xml</dc:format><dc:type
           rdf:resource="http://purl.org/dc/dcmitype/StillImage" /><dc:title></dc:title></cc:Work></rdf:RDF></metadata><rect
     style="opacity:1;fill:none;fill-opacity:1;stroke:none;stroke-width:0.37795275;stroke-linejoin:round;stroke-miterlimit:4;stroke-dasharray:none;stroke-opacity:1"
     id="rect843"
     width="11.707317"
     height="4.2146339"
     x="57.756096"
     y="68.839027" /></svg>